<svg xmlns="http://www.w3.org/2000/svg" xmlns:xlink="http://www.w3.org/1999/xlink" width="452" zoomAndPan="magnify" viewBox="0 0 339 334.49999" height="446" preserveAspectRatio="xMidYMid meet" version="1.0"><defs><clipPath id="667dba7625"><path d="M 163 175 L 276 175 L 276 277 L 163 277 Z M 163 175 " clip-rule="nonzero"/></clipPath><clipPath id="5974035f5e"><path d="M 101.328125 0.4375 L 338.734375 105.070312 L 238.046875 333.527344 L 0.640625 228.898438 Z M 101.328125 0.4375 " clip-rule="nonzero"/></clipPath><clipPath id="b25b71b0bf"><path d="M 101.328125 0.4375 L 338.734375 105.070312 L 238.046875 333.527344 L 0.640625 228.898438 Z M 101.328125 0.4375 " clip-rule="nonzero"/></clipPath><clipPath id="a2319f3abf"><path d="M 170 185 L 275 185 L 275 277 L 170 277 Z M 170 185 " clip-rule="nonzero"/></clipPath><clipPath id="696cfbddcb"><path d="M 101.328125 0.4375 L 338.734375 105.070312 L 238.046875 333.527344 L 0.640625 228.898438 Z M 101.328125 0.4375 " clip-rule="nonzero"/></clipPath><clipPath id="a74e9307e8"><path d="M 101.328125 0.4375 L 338.734375 105.070312 L 238.046875 333.527344 L 0.640625 228.898438 Z M 101.328125 0.4375 " clip-rule="nonzero"/></clipPath><clipPath id="80058c4560"><path d="M 184 175 L 242 175 L 242 197 L 184 197 Z M 184 175 " clip-rule="nonzero"/></clipPath><clipPath id="12d571dba0"><path d="M 101.328125 0.4375 L 338.734375 105.070312 L 238.046875 333.527344 L 0.640625 228.898438 Z M 101.328125 0.4375 " clip-rule="nonzero"/></clipPath><clipPath id="78b00e59cf"><path d="M 101.328125 0.4375 L 338.734375 105.070312 L 238.046875 333.527344 L 0.640625 228.898438 Z M 101.328125 0.4375 " clip-rule="nonzero"/></clipPath><clipPath id="1c2828c076"><path d="M 196 181 L 231 181 L 231 193 L 196 193 Z M 196 181 " clip-rule="nonzero"/></clipPath><clipPath id="69ee2ef39a"><path d="M 101.328125 0.4375 L 338.734375 105.070312 L 238.046875 333.527344 L 0.640625 228.898438 Z M 101.328125 0.4375 " clip-rule="nonzero"/></clipPath><clipPath id="7d04cbd685"><path d="M 101.328125 0.4375 L 338.734375 105.070312 L 238.046875 333.527344 L 0.640625 228.898438 Z M 101.328125 0.4375 " clip-rule="nonzero"/></clipPath><clipPath id="210d1d05b0"><path d="M 172 194 L 194 194 L 194 226 L 172 226 Z M 172 194 " clip-rule="nonzero"/></clipPath><clipPath id="cb5172b2ca"><path d="M 101.328125 0.4375 L 338.734375 105.070312 L 238.046875 333.527344 L 0.640625 228.898438 Z M 101.328125 0.4375 " clip-rule="nonzero"/></clipPath><clipPath id="be202bedbd"><path d="M 101.328125 0.4375 L 338.734375 105.070312 L 238.046875 333.527344 L 0.640625 228.898438 Z M 101.328125 0.4375 " clip-rule="nonzero"/></clipPath><clipPath id="2aa65d0a09"><path d="M 174 229 L 190 229 L 190 245 L 174 245 Z M 174 229 " clip-rule="nonzero"/></clipPath><clipPath id="8a13e8fa9d"><path d="M 101.328125 0.4375 L 338.734375 105.070312 L 238.046875 333.527344 L 0.640625 228.898438 Z M 101.328125 0.4375 " clip-rule="nonzero"/></clipPath><clipPath id="c1e41cb09e"><path d="M 101.328125 0.4375 L 338.734375 105.070312 L 238.046875 333.527344 L 0.640625 228.898438 Z M 101.328125 0.4375 " clip-rule="nonzero"/></clipPath><clipPath id="89cb99f1dc"><path d="M 26 144 L 139 144 L 139 253 L 26 253 Z M 26 144 " clip-rule="nonzero"/></clipPath><clipPath id="91fbd5fc47"><path d="M 101.328125 0.4375 L 338.734375 105.070312 L 238.046875 333.527344 L 0.640625 228.898438 Z M 101.328125 0.4375 " clip-rule="nonzero"/></clipPath><clipPath id="46fc4f6317"><path d="M 101.328125 0.4375 L 338.734375 105.070312 L 238.046875 333.527344 L 0.640625 228.898438 Z M 101.328125 0.4375 " clip-rule="nonzero"/></clipPath><clipPath id="0fb10bceba"><path d="M 26 181 L 139 181 L 139 254 L 26 254 Z M 26 181 " clip-rule="nonzero"/></clipPath><clipPath id="31273f279f"><path d="M 101.328125 0.4375 L 338.734375 105.070312 L 238.046875 333.527344 L 0.640625 228.898438 Z M 101.328125 0.4375 " clip-rule="nonzero"/></clipPath><clipPath id="6f488a7280"><path d="M 101.328125 0.4375 L 338.734375 105.070312 L 238.046875 333.527344 L 0.640625 228.898438 Z M 101.328125 0.4375 " clip-rule="nonzero"/></clipPath><clipPath id="9a2a325a89"><path d="M 83 146 L 132 146 L 132 186 L 83 186 Z M 83 146 " clip-rule="nonzero"/></clipPath><clipPath id="c10d70df61"><path d="M 101.328125 0.4375 L 338.734375 105.070312 L 238.046875 333.527344 L 0.640625 228.898438 Z M 101.328125 0.4375 " clip-rule="nonzero"/></clipPath><clipPath id="e3d3cc5049"><path d="M 101.328125 0.4375 L 338.734375 105.070312 L 238.046875 333.527344 L 0.640625 228.898438 Z M 101.328125 0.4375 " clip-rule="nonzero"/></clipPath><clipPath id="03f54d194e"><path d="M 91 156 L 120 156 L 120 179 L 91 179 Z M 91 156 " clip-rule="nonzero"/></clipPath><clipPath id="4fa0fb8d69"><path d="M 101.328125 0.4375 L 338.734375 105.070312 L 238.046875 333.527344 L 0.640625 228.898438 Z M 101.328125 0.4375 " clip-rule="nonzero"/></clipPath><clipPath id="d773238876"><path d="M 101.328125 0.4375 L 338.734375 105.070312 L 238.046875 333.527344 L 0.640625 228.898438 Z M 101.328125 0.4375 " clip-rule="nonzero"/></clipPath><clipPath id="973d1e9fc4"><path d="M 48 151 L 82 151 L 82 173 L 48 173 Z M 48 151 " clip-rule="nonzero"/></clipPath><clipPath id="6f1b9cc3e7"><path d="M 101.328125 0.4375 L 338.734375 105.070312 L 238.046875 333.527344 L 0.640625 228.898438 Z M 101.328125 0.4375 " clip-rule="nonzero"/></clipPath><clipPath id="5e539b59f3"><path d="M 101.328125 0.4375 L 338.734375 105.070312 L 238.046875 333.527344 L 0.640625 228.898438 Z M 101.328125 0.4375 " clip-rule="nonzero"/></clipPath><clipPath id="cf60eb79cf"><path d="M 35 170 L 51 170 L 51 187 L 35 187 Z M 35 170 " clip-rule="nonzero"/></clipPath><clipPath id="809202fdbe"><path d="M 101.328125 0.4375 L 338.734375 105.070312 L 238.046875 333.527344 L 0.640625 228.898438 Z M 101.328125 0.4375 " clip-rule="nonzero"/></clipPath><clipPath id="4cb1b153c3"><path d="M 101.328125 0.4375 L 338.734375 105.070312 L 238.046875 333.527344 L 0.640625 228.898438 Z M 101.328125 0.4375 " clip-rule="nonzero"/></clipPath><clipPath id="0498374ce0"><path d="M 101 63 L 216 63 L 216 176 L 101 176 Z M 101 63 " clip-rule="nonzero"/></clipPath><clipPath id="a40c0b67ea"><path d="M 101.328125 0.4375 L 338.734375 105.070312 L 238.046875 333.527344 L 0.640625 228.898438 Z M 101.328125 0.4375 " clip-rule="nonzero"/></clipPath><clipPath id="61f767ad91"><path d="M 101.328125 0.4375 L 338.734375 105.070312 L 238.046875 333.527344 L 0.640625 228.898438 Z M 101.328125 0.4375 " clip-rule="nonzero"/></clipPath><clipPath id="8c35c8701e"><path d="M 192 63 L 216 63 L 216 192 L 192 192 Z M 192 63 " clip-rule="nonzero"/></clipPath><clipPath id="c7e7174f3a"><path d="M 101.328125 0.4375 L 338.734375 105.070312 L 238.046875 333.527344 L 0.640625 228.898438 Z M 101.328125 0.4375 " clip-rule="nonzero"/></clipPath><clipPath id="bede8b7809"><path d="M 101.328125 0.4375 L 338.734375 105.070312 L 238.046875 333.527344 L 0.640625 228.898438 Z M 101.328125 0.4375 " clip-rule="nonzero"/></clipPath><clipPath id="1ac38dcbcd"><path d="M 201 46 L 232 46 L 232 85 L 201 85 Z M 201 46 " clip-rule="nonzero"/></clipPath><clipPath id="aa4f6e2e40"><path d="M 101.328125 0.4375 L 338.734375 105.070312 L 238.046875 333.527344 L 0.640625 228.898438 Z M 101.328125 0.4375 " clip-rule="nonzero"/></clipPath><clipPath id="eb2cc09dfb"><path d="M 101.328125 0.4375 L 338.734375 105.070312 L 238.046875 333.527344 L 0.640625 228.898438 Z M 101.328125 0.4375 " clip-rule="nonzero"/></clipPath><clipPath id="f6df764734"><path d="M 45 181 L 64 181 L 64 201 L 45 201 Z M 45 181 " clip-rule="nonzero"/></clipPath><clipPath id="e3096c607a"><path d="M 59.628906 165.957031 L 118.199219 210.082031 L 97.214844 237.9375 L 38.640625 193.808594 Z M 59.628906 165.957031 " clip-rule="nonzero"/></clipPath><clipPath id="44f9666a0f"><path d="M 59.628906 165.957031 L 118.199219 210.082031 L 97.214844 237.9375 L 38.640625 193.808594 Z M 59.628906 165.957031 " clip-rule="nonzero"/></clipPath><clipPath id="4ff642e9c9"><path d="M 59.628906 165.957031 L 118.199219 210.082031 L 97.214844 237.9375 L 38.640625 193.808594 Z M 59.628906 165.957031 " clip-rule="nonzero"/></clipPath><clipPath id="2f6a371457"><path d="M 44 180 L 65 180 L 65 202 L 44 202 Z M 44 180 " clip-rule="nonzero"/></clipPath><clipPath id="0f1d00fc24"><path d="M 59.628906 165.957031 L 118.199219 210.082031 L 97.214844 237.9375 L 38.640625 193.808594 Z M 59.628906 165.957031 " clip-rule="nonzero"/></clipPath><clipPath id="2758303d0f"><path d="M 59.628906 165.957031 L 118.199219 210.082031 L 97.214844 237.9375 L 38.640625 193.808594 Z M 59.628906 165.957031 " clip-rule="nonzero"/></clipPath><clipPath id="381939d25d"><path d="M 59.628906 165.957031 L 118.199219 210.082031 L 97.214844 237.9375 L 38.640625 193.808594 Z M 59.628906 165.957031 " clip-rule="nonzero"/></clipPath><clipPath id="ae95c5a3f8"><path d="M 49 182 L 59 182 L 59 192 L 49 192 Z M 49 182 " clip-rule="nonzero"/></clipPath><clipPath id="3b4df315d4"><path d="M 59.628906 165.957031 L 118.199219 210.082031 L 97.214844 237.9375 L 38.640625 193.808594 Z M 59.628906 165.957031 " clip-rule="nonzero"/></clipPath><clipPath id="bfde25cd0f"><path d="M 59.628906 165.957031 L 118.199219 210.082031 L 97.214844 237.9375 L 38.640625 193.808594 Z M 59.628906 165.957031 " clip-rule="nonzero"/></clipPath><clipPath id="5135ef0592"><path d="M 59.628906 165.957031 L 118.199219 210.082031 L 97.214844 237.9375 L 38.640625 193.808594 Z M 59.628906 165.957031 " clip-rule="nonzero"/></clipPath><clipPath id="27e3446dea"><path d="M 48 182 L 60 182 L 60 193 L 48 193 Z M 48 182 " clip-rule="nonzero"/></clipPath><clipPath id="72f6832e08"><path d="M 59.628906 165.957031 L 118.199219 210.082031 L 97.214844 237.9375 L 38.640625 193.808594 Z M 59.628906 165.957031 " clip-rule="nonzero"/></clipPath><clipPath id="343a0bb74e"><path d="M 59.628906 165.957031 L 118.199219 210.082031 L 97.214844 237.9375 L 38.640625 193.808594 Z M 59.628906 165.957031 " clip-rule="nonzero"/></clipPath><clipPath id="89f7ca42a9"><path d="M 59.628906 165.957031 L 118.199219 210.082031 L 97.214844 237.9375 L 38.640625 193.808594 Z M 59.628906 165.957031 " clip-rule="nonzero"/></clipPath><clipPath id="1c0415d7bf"><path d="M 54 192 L 60 192 L 60 197 L 54 197 Z M 54 192 " clip-rule="nonzero"/></clipPath><clipPath id="247def8bca"><path d="M 59.628906 165.957031 L 118.199219 210.082031 L 97.214844 237.9375 L 38.640625 193.808594 Z M 59.628906 165.957031 " clip-rule="nonzero"/></clipPath><clipPath id="0ed91246fc"><path d="M 59.628906 165.957031 L 118.199219 210.082031 L 97.214844 237.9375 L 38.640625 193.808594 Z M 59.628906 165.957031 " clip-rule="nonzero"/></clipPath><clipPath id="dbb2aac39c"><path d="M 59.628906 165.957031 L 118.199219 210.082031 L 97.214844 237.9375 L 38.640625 193.808594 Z M 59.628906 165.957031 " clip-rule="nonzero"/></clipPath><clipPath id="400e065440"><path d="M 53 191 L 60 191 L 60 198 L 53 198 Z M 53 191 " clip-rule="nonzero"/></clipPath><clipPath id="feafae9698"><path d="M 59.628906 165.957031 L 118.199219 210.082031 L 97.214844 237.9375 L 38.640625 193.808594 Z M 59.628906 165.957031 " clip-rule="nonzero"/></clipPath><clipPath id="88c016a8d6"><path d="M 59.628906 165.957031 L 118.199219 210.082031 L 97.214844 237.9375 L 38.640625 193.808594 Z M 59.628906 165.957031 " clip-rule="nonzero"/></clipPath><clipPath id="c676e5848c"><path d="M 59.628906 165.957031 L 118.199219 210.082031 L 97.214844 237.9375 L 38.640625 193.808594 Z M 59.628906 165.957031 " clip-rule="nonzero"/></clipPath><clipPath id="a5c2422558"><path d="M 85 211 L 103 211 L 103 230 L 85 230 Z M 85 211 " clip-rule="nonzero"/></clipPath><clipPath id="f0c11b0690"><path d="M 59.628906 165.957031 L 118.199219 210.082031 L 97.214844 237.9375 L 38.640625 193.808594 Z M 59.628906 165.957031 " clip-rule="nonzero"/></clipPath><clipPath id="a4ac66cf00"><path d="M 59.628906 165.957031 L 118.199219 210.082031 L 97.214844 237.9375 L 38.640625 193.808594 Z M 59.628906 165.957031 " clip-rule="nonzero"/></clipPath><clipPath id="33e3acd219"><path d="M 59.628906 165.957031 L 118.199219 210.082031 L 97.214844 237.9375 L 38.640625 193.808594 Z M 59.628906 165.957031 " clip-rule="nonzero"/></clipPath><clipPath id="d781e7eeef"><path d="M 84 210 L 104 210 L 104 231 L 84 231 Z M 84 210 " clip-rule="nonzero"/></clipPath><clipPath id="99cc7cc964"><path d="M 59.628906 165.957031 L 118.199219 210.082031 L 97.214844 237.9375 L 38.640625 193.808594 Z M 59.628906 165.957031 " clip-rule="nonzero"/></clipPath><clipPath id="7a37b80499"><path d="M 59.628906 165.957031 L 118.199219 210.082031 L 97.214844 237.9375 L 38.640625 193.808594 Z M 59.628906 165.957031 " clip-rule="nonzero"/></clipPath><clipPath id="42f6e3cef5"><path d="M 59.628906 165.957031 L 118.199219 210.082031 L 97.214844 237.9375 L 38.640625 193.808594 Z M 59.628906 165.957031 " clip-rule="nonzero"/></clipPath><clipPath id="7080a6342e"><path d="M 88 212 L 98 212 L 98 221 L 88 221 Z M 88 212 " clip-rule="nonzero"/></clipPath><clipPath id="714a1933dd"><path d="M 59.628906 165.957031 L 118.199219 210.082031 L 97.214844 237.9375 L 38.640625 193.808594 Z M 59.628906 165.957031 " clip-rule="nonzero"/></clipPath><clipPath id="8406d88b08"><path d="M 59.628906 165.957031 L 118.199219 210.082031 L 97.214844 237.9375 L 38.640625 193.808594 Z M 59.628906 165.957031 " clip-rule="nonzero"/></clipPath><clipPath id="e6533797f4"><path d="M 59.628906 165.957031 L 118.199219 210.082031 L 97.214844 237.9375 L 38.640625 193.808594 Z M 59.628906 165.957031 " clip-rule="nonzero"/></clipPath><clipPath id="a8685b6e9c"><path d="M 88 211 L 99 211 L 99 222 L 88 222 Z M 88 211 " clip-rule="nonzero"/></clipPath><clipPath id="0a7e73a4ba"><path d="M 59.628906 165.957031 L 118.199219 210.082031 L 97.214844 237.9375 L 38.640625 193.808594 Z M 59.628906 165.957031 " clip-rule="nonzero"/></clipPath><clipPath id="fcdf11e95c"><path d="M 59.628906 165.957031 L 118.199219 210.082031 L 97.214844 237.9375 L 38.640625 193.808594 Z M 59.628906 165.957031 " clip-rule="nonzero"/></clipPath><clipPath id="f66c180218"><path d="M 59.628906 165.957031 L 118.199219 210.082031 L 97.214844 237.9375 L 38.640625 193.808594 Z M 59.628906 165.957031 " clip-rule="nonzero"/></clipPath><clipPath id="5f22b2a954"><path d="M 93 220 L 98 220 L 98 226 L 93 226 Z M 93 220 " clip-rule="nonzero"/></clipPath><clipPath id="06aaa1a49e"><path d="M 59.628906 165.957031 L 118.199219 210.082031 L 97.214844 237.9375 L 38.640625 193.808594 Z M 59.628906 165.957031 " clip-rule="nonzero"/></clipPath><clipPath id="fe58a2031b"><path d="M 59.628906 165.957031 L 118.199219 210.082031 L 97.214844 237.9375 L 38.640625 193.808594 Z M 59.628906 165.957031 " clip-rule="nonzero"/></clipPath><clipPath id="2a0da7e956"><path d="M 59.628906 165.957031 L 118.199219 210.082031 L 97.214844 237.9375 L 38.640625 193.808594 Z M 59.628906 165.957031 " clip-rule="nonzero"/></clipPath><clipPath id="38b9d21775"><path d="M 93 220 L 99 220 L 99 226 L 93 226 Z M 93 220 " clip-rule="nonzero"/></clipPath><clipPath id="6a37d4ae3f"><path d="M 59.628906 165.957031 L 118.199219 210.082031 L 97.214844 237.9375 L 38.640625 193.808594 Z M 59.628906 165.957031 " clip-rule="nonzero"/></clipPath><clipPath id="95953d08ec"><path d="M 59.628906 165.957031 L 118.199219 210.082031 L 97.214844 237.9375 L 38.640625 193.808594 Z M 59.628906 165.957031 " clip-rule="nonzero"/></clipPath><clipPath id="125a6a7e51"><path d="M 59.628906 165.957031 L 118.199219 210.082031 L 97.214844 237.9375 L 38.640625 193.808594 Z M 59.628906 165.957031 " clip-rule="nonzero"/></clipPath><clipPath id="b9fc5203c3"><path d="M 106 202 L 113 202 L 113 218 L 106 218 Z M 106 202 " clip-rule="nonzero"/></clipPath><clipPath id="9bcfab5738"><path d="M 59.628906 165.957031 L 118.199219 210.082031 L 97.214844 237.9375 L 38.640625 193.808594 Z M 59.628906 165.957031 " clip-rule="nonzero"/></clipPath><clipPath id="c6dde0733a"><path d="M 59.628906 165.957031 L 118.199219 210.082031 L 97.214844 237.9375 L 38.640625 193.808594 Z M 59.628906 165.957031 " clip-rule="nonzero"/></clipPath><clipPath id="e65e12ac52"><path d="M 59.628906 165.957031 L 118.199219 210.082031 L 97.214844 237.9375 L 38.640625 193.808594 Z M 59.628906 165.957031 " clip-rule="nonzero"/></clipPath><clipPath id="9499f0c981"><path d="M 54 173 L 72 173 L 72 177 L 54 177 Z M 54 173 " clip-rule="nonzero"/></clipPath><clipPath id="e8b11482eb"><path d="M 59.628906 165.957031 L 118.199219 210.082031 L 97.214844 237.9375 L 38.640625 193.808594 Z M 59.628906 165.957031 " clip-rule="nonzero"/></clipPath><clipPath id="8c1c728c76"><path d="M 59.628906 165.957031 L 118.199219 210.082031 L 97.214844 237.9375 L 38.640625 193.808594 Z M 59.628906 165.957031 " clip-rule="nonzero"/></clipPath><clipPath id="f66cd0a760"><path d="M 59.628906 165.957031 L 118.199219 210.082031 L 97.214844 237.9375 L 38.640625 193.808594 Z M 59.628906 165.957031 " clip-rule="nonzero"/></clipPath><clipPath id="6b4393cb44"><path d="M 61 209 L 75 209 L 75 219 L 61 219 Z M 61 209 " clip-rule="nonzero"/></clipPath><clipPath id="e571538299"><path d="M 59.628906 165.957031 L 118.199219 210.082031 L 97.214844 237.9375 L 38.640625 193.808594 Z M 59.628906 165.957031 " clip-rule="nonzero"/></clipPath><clipPath id="49856a4aa9"><path d="M 59.628906 165.957031 L 118.199219 210.082031 L 97.214844 237.9375 L 38.640625 193.808594 Z M 59.628906 165.957031 " clip-rule="nonzero"/></clipPath><clipPath id="ecefa2252e"><path d="M 59.628906 165.957031 L 118.199219 210.082031 L 97.214844 237.9375 L 38.640625 193.808594 Z M 59.628906 165.957031 " clip-rule="nonzero"/></clipPath><clipPath id="7d3f07fc80"><path d="M 192 214 L 259 214 L 259 243 L 192 243 Z M 192 214 " clip-rule="nonzero"/></clipPath><clipPath id="c64a1ebe80"><path d="M 179.296875 235.714844 L 266.109375 208.648438 L 274.9375 236.964844 L 188.121094 264.03125 Z M 179.296875 235.714844 " clip-rule="nonzero"/></clipPath><clipPath id="f52536bffb"><path d="M 179.296875 235.714844 L 266.109375 208.648438 L 274.9375 236.964844 L 188.121094 264.03125 Z M 179.296875 235.714844 " clip-rule="nonzero"/></clipPath><clipPath id="b2777bb849"><path d="M 220 238 L 239 238 L 239 252 L 220 252 Z M 220 238 " clip-rule="nonzero"/></clipPath><clipPath id="5674c85327"><path d="M 179.296875 235.714844 L 266.109375 208.648438 L 274.9375 236.964844 L 188.121094 264.03125 Z M 179.296875 235.714844 " clip-rule="nonzero"/></clipPath><clipPath id="d504ac6dcd"><path d="M 179.296875 235.714844 L 266.109375 208.648438 L 274.9375 236.964844 L 188.121094 264.03125 Z M 179.296875 235.714844 " clip-rule="nonzero"/></clipPath><clipPath id="eac7cb645e"><path d="M 186 222 L 271 222 L 271 257 L 186 257 Z M 186 222 " clip-rule="nonzero"/></clipPath><clipPath id="637efa666b"><path d="M 179.296875 235.714844 L 266.109375 208.648438 L 274.9375 236.964844 L 188.121094 264.03125 Z M 179.296875 235.714844 " clip-rule="nonzero"/></clipPath><clipPath id="5c4963e9b4"><path d="M 179.296875 235.714844 L 266.109375 208.648438 L 274.9375 236.964844 L 188.121094 264.03125 Z M 179.296875 235.714844 " clip-rule="nonzero"/></clipPath></defs><g clip-path="url(#667dba7625)"><g clip-path="url(#5974035f5e)"><g clip-path="url(#b25b71b0bf)"><path fill="#ad1044" d="M 204.269531 181.347656 C 209.789062 181.386719 215.191406 180.328125 220.566406 178.65625 C 254.78125 167.554688 270.65625 190.261719 274.511719 214.101562 C 278.707031 239.886719 256.023438 271.332031 227.984375 275.878906 C 199.949219 280.429688 168.453125 257.871094 164.257812 232.082031 C 160.472656 208.421875 168.1875 181.753906 204.269531 181.347656 Z M 204.269531 181.347656 " fill-opacity="1" fill-rule="nonzero"/></g></g></g><g clip-path="url(#a2319f3abf)"><g clip-path="url(#696cfbddcb)"><g clip-path="url(#a74e9307e8)"><path fill="#6d022f" d="M 260.910156 185.21875 C 258.738281 209.84375 246.898438 233.648438 223.957031 244.628906 C 206.9375 252.691406 188.660156 252.414062 170.703125 248.6875 C 182.183594 266.765625 206.105469 279.699219 227.875 276.128906 C 255.855469 271.707031 278.527344 239.957031 274.402344 214.351562 C 272.699219 203.28125 268.316406 192.519531 260.910156 185.21875 Z M 260.910156 185.21875 " fill-opacity="1" fill-rule="nonzero"/></g></g></g><g clip-path="url(#80058c4560)"><g clip-path="url(#12d571dba0)"><g clip-path="url(#78b00e59cf)"><path fill="#6d022f" d="M 198.15625 195.558594 C 209.910156 197.746094 222.804688 197 232.429688 189.421875 C 236.976562 185.890625 239.9375 181.210938 241.589844 176.105469 C 235.609375 175.414062 228.539062 176.1875 220.511719 178.78125 C 215.261719 180.507812 209.789062 181.386719 204.214844 181.472656 C 196.25 181.554688 189.511719 182.925781 184.113281 185.332031 C 187.132812 190.703125 192.289062 194.621094 198.15625 195.558594 Z M 198.15625 195.558594 " fill-opacity="1" fill-rule="nonzero"/></g></g></g><g clip-path="url(#1c2828c076)"><g clip-path="url(#69ee2ef39a)"><g clip-path="url(#7d04cbd685)"><path fill="#200107" d="M 196.394531 187.003906 C 199.316406 187.84375 202.347656 188.429688 205.308594 188.839844 C 208.324219 189.121094 211.203125 189.042969 213.996094 188.476562 C 214.355469 188.335938 214.660156 188.324219 214.96875 188.308594 C 215.328125 188.167969 215.6875 188.027344 215.941406 188.136719 L 216.914062 187.96875 L 217.941406 187.671875 L 218.605469 187.519531 L 219.148438 187.308594 L 220.175781 187.011719 L 221.078125 186.664062 C 221.4375 186.523438 221.800781 186.382812 222.035156 186.1875 C 224.671875 184.957031 227.367188 183.597656 230.042969 181.9375 C 228.328125 184.472656 225.929688 186.855469 223.324219 188.699219 C 222.546875 189.105469 222.019531 189.621094 221.296875 189.902344 C 220.878906 190.164062 220.574219 190.179688 220.339844 190.375 L 219.742188 190.710938 L 219.019531 190.992188 C 217.523438 191.675781 215.882812 192.003906 214.367188 192.382812 C 211.144531 192.90625 207.765625 192.765625 204.539062 191.941406 C 202.925781 191.527344 201.492188 191.046875 200.042969 190.257812 C 198.761719 189.09375 197.496094 188.238281 196.394531 187.003906 Z M 196.394531 187.003906 " fill-opacity="1" fill-rule="nonzero"/></g></g></g><g clip-path="url(#210d1d05b0)"><g clip-path="url(#cb5172b2ca)"><g clip-path="url(#be202bedbd)"><path fill="#fda19c" d="M 191.085938 196.332031 C 188.128906 193.535156 183.222656 193.464844 180.421875 196.421875 C 174.882812 202.207031 171.777344 210.265625 172.414062 218.324219 C 172.609375 222.300781 175.734375 226.070312 180.140625 225.917969 C 183.988281 225.671875 188.066406 222.53125 187.734375 218.195312 C 187.414062 214.164062 188.5 210.003906 191.296875 207.050781 C 193.390625 204.679688 194.199219 201.144531 192.773438 198.273438 C 192.1875 197.566406 191.726562 196.914062 191.085938 196.332031 Z M 191.085938 196.332031 " fill-opacity="1" fill-rule="nonzero"/></g></g></g><g clip-path="url(#2aa65d0a09)"><g clip-path="url(#8a13e8fa9d)"><g clip-path="url(#c1e41cb09e)"><path fill="#fda19c" d="M 179.902344 229.851562 C 176.152344 230.894531 173.300781 235.324219 174.59375 239.183594 C 175.882812 243.042969 179.867188 245.546875 183.921875 244.492188 C 187.671875 243.449219 190.523438 239.023438 189.230469 235.160156 C 187.941406 231.300781 184.011719 228.671875 179.902344 229.851562 Z M 179.902344 229.851562 " fill-opacity="1" fill-rule="nonzero"/></g></g></g><g clip-path="url(#89cb99f1dc)"><g clip-path="url(#91fbd5fc47)"><g clip-path="url(#46fc4f6317)"><path fill="#ad1044" d="M 101.046875 158.597656 C 104.980469 162.574219 109.492188 165.910156 114.464844 168.546875 C 146.625 185.867188 141.277344 213.277344 126.492188 233.242188 C 110.546875 254.492188 71.464844 260.003906 48.558594 242.730469 C 25.527344 225.398438 19.957031 186.441406 35.777344 165.136719 C 50.519531 145.601562 75.445312 132.5 101.046875 158.597656 Z M 101.046875 158.597656 " fill-opacity="1" fill-rule="nonzero"/></g></g></g><g clip-path="url(#0fb10bceba)"><g clip-path="url(#31273f279f)"><g clip-path="url(#6f488a7280)"><path fill="#6d022f" d="M 138.199219 202.945312 C 118.679688 218.730469 92.765625 226.605469 68.859375 217.714844 C 51.003906 211.042969 38.253906 197.195312 28.367188 181.617188 C 23.203125 202.832031 30.625 229.441406 48.503906 242.855469 C 71.535156 260.1875 110.617188 254.671875 126.4375 233.367188 C 133.289062 224.269531 138.039062 213.496094 138.199219 202.945312 Z M 138.199219 202.945312 " fill-opacity="1" fill-rule="nonzero"/></g></g></g><g clip-path="url(#9a2a325a89)"><g clip-path="url(#c10d70df61)"><g clip-path="url(#e3d3cc5049)"><path fill="#6d022f" d="M 86.359375 164.089844 C 93.171875 174.425781 102.609375 183.222656 115.140625 185.003906 C 120.882812 185.890625 126.46875 184.761719 131.3125 182.257812 C 127.515625 177.292969 122.078125 172.652344 114.535156 168.730469 C 109.742188 166.019531 105.105469 162.628906 101.117188 158.777344 C 95.316406 152.929688 89.675781 149.097656 84.289062 146.722656 C 82.304688 152.578125 83.117188 159.222656 86.359375 164.089844 Z M 86.359375 164.089844 " fill-opacity="1" fill-rule="nonzero"/></g></g></g><g clip-path="url(#03f54d194e)"><g clip-path="url(#4fa0fb8d69)"><g clip-path="url(#d773238876)"><path fill="#200107" d="M 91.464844 156.914062 C 92.945312 159.664062 94.609375 162.339844 96.4375 164.644531 C 98.265625 166.945312 100.507812 168.980469 102.738281 170.710938 C 103.058594 171.003906 103.308594 171.113281 103.628906 171.402344 C 104.007812 171.570312 104.203125 171.804688 104.523438 172.097656 L 105.46875 172.664062 L 106.417969 173.230469 L 106.917969 173.449219 L 107.417969 173.671875 L 108.421875 174.113281 L 109.421875 174.554688 C 109.796875 174.71875 110.050781 174.832031 110.425781 174.996094 C 113.179688 176.210938 116.15625 176.925781 119.148438 177.945312 C 116.050781 178.523438 112.796875 178.4375 109.515625 177.738281 C 108.652344 177.65625 107.902344 177.324219 107.09375 177.121094 C 106.59375 176.898438 106.34375 176.789062 105.914062 176.75 L 105.410156 176.527344 L 104.910156 176.304688 C 103.28125 175.589844 102.015625 174.730469 100.621094 173.816406 C 97.835938 171.992188 95.5625 169.34375 94.066406 166.289062 C 93.199219 164.863281 92.511719 163.363281 92.132812 161.847656 C 91.558594 160.097656 91.234375 158.460938 91.464844 156.914062 Z M 91.464844 156.914062 " fill-opacity="1" fill-rule="nonzero"/></g></g></g><g clip-path="url(#973d1e9fc4)"><g clip-path="url(#6f1b9cc3e7)"><g clip-path="url(#5e539b59f3)"><path fill="#fda19c" d="M 81.046875 159.507812 C 81.394531 155.320312 78.324219 151.425781 73.960938 151.144531 C 65.839844 150.558594 57.507812 153.171875 51.589844 158.792969 C 48.722656 161.566406 47.613281 166.460938 50.402344 169.636719 C 52.996094 172.574219 58.199219 173.671875 61.246094 170.828125 C 63.117188 168.957031 65.433594 167.4375 67.921875 166.886719 C 69.378906 166.632812 70.910156 166.558594 72.4375 166.484375 C 73.660156 166.421875 75.0625 166.292969 76.273438 165.929688 C 79.105469 164.933594 80.875 162.273438 81.046875 159.507812 Z M 81.046875 159.507812 " fill-opacity="1" fill-rule="nonzero"/></g></g></g><g clip-path="url(#cf60eb79cf)"><g clip-path="url(#809202fdbe)"><g clip-path="url(#4cb1b153c3)"><path fill="#fda19c" d="M 47.335938 172.175781 C 44.035156 169.824219 38.851562 170.382812 36.515625 173.988281 C 34.300781 177.652344 34.832031 182.222656 38.328125 184.8125 C 41.628906 187.164062 46.8125 186.605469 49.148438 183 C 51.433594 179.515625 51.015625 174.695312 47.335938 172.175781 Z M 47.335938 172.175781 " fill-opacity="1" fill-rule="nonzero"/></g></g></g><g clip-path="url(#0498374ce0)"><g clip-path="url(#a40c0b67ea)"><g clip-path="url(#61f767ad91)"><path fill="#13761f" d="M 103.488281 174.78125 C 103.363281 174.726562 103.363281 174.726562 103.238281 174.671875 C 101.789062 173.882812 101.214844 172.132812 102.070312 170.867188 C 102.402344 170.113281 112.203125 152.292969 130.371094 130.078125 C 147.390625 109.453125 175.144531 81.441406 211.328125 64.175781 C 212.828125 63.492188 214.511719 64.082031 215.199219 65.582031 C 215.882812 67.082031 215.289062 68.765625 213.792969 69.453125 C 178.566406 86.242188 151.449219 113.484375 134.953125 133.59375 C 117.007812 155.308594 107.457031 173.242188 107.347656 173.492188 C 106.492188 174.757812 104.867188 175.390625 103.488281 174.78125 Z M 103.488281 174.78125 " fill-opacity="1" fill-rule="nonzero"/></g></g></g><g clip-path="url(#8c35c8701e)"><g clip-path="url(#c7e7174f3a)"><g clip-path="url(#bede8b7809)"><path fill="#13761f" d="M 211.308594 191.183594 C 210.804688 190.960938 210.359375 190.617188 210.023438 190.019531 C 209.742188 189.296875 200.160156 173.703125 195.292969 150.464844 C 192.484375 136.808594 192.011719 123.285156 193.527344 110.339844 C 195.6875 94.234375 201.199219 79.011719 210.207031 65.027344 C 210.9375 63.707031 212.703125 63.4375 214.152344 64.222656 C 215.542969 65.136719 215.8125 66.902344 215.082031 68.222656 C 199.753906 92.136719 194.945312 119.34375 201.113281 149.136719 C 205.628906 171.476562 215.019531 186.835938 215.089844 187.015625 C 216.011719 188.320312 215.488281 190.183594 214.058594 191.050781 C 213.171875 191.703125 212.183594 191.570312 211.308594 191.183594 Z M 211.308594 191.183594 " fill-opacity="1" fill-rule="nonzero"/></g></g></g><g clip-path="url(#1ac38dcbcd)"><g clip-path="url(#aa4f6e2e40)"><g clip-path="url(#eb2cc09dfb)"><path fill="#13761f" d="M 227.179688 83.878906 C 226.929688 83.769531 226.679688 83.660156 226.679688 83.660156 C 214.363281 74.941406 202.160156 52.058594 201.558594 51.042969 C 200.746094 49.488281 201.269531 47.625 202.769531 46.941406 C 204.265625 46.253906 206.1875 46.652344 206.871094 48.148438 C 207.191406 48.441406 219.0625 70.726562 230.109375 78.589844 C 231.574219 79.683594 231.84375 81.445312 230.875 82.964844 C 230.128906 83.980469 228.558594 84.488281 227.179688 83.878906 Z M 227.179688 83.878906 " fill-opacity="1" fill-rule="nonzero"/></g></g></g><g clip-path="url(#f6df764734)"><g clip-path="url(#e3096c607a)"><g clip-path="url(#44f9666a0f)"><g clip-path="url(#4ff642e9c9)"><path fill="#000000" d="M 59.183594 182.351562 C 56.878906 181.160156 54.054688 181.386719 51.484375 182.542969 C 47.667969 184.257812 44.96875 187.65625 45.640625 191.996094 C 46.0625 194.730469 47.804688 197.207031 50.167969 198.664062 C 52.445312 200.070312 55.273438 200.546875 57.878906 199.964844 C 58.527344 199.816406 59.167969 199.605469 59.742188 199.269531 C 60.273438 198.957031 60.738281 198.542969 61.15625 198.09375 C 64.371094 194.644531 64.464844 188.6875 61.875 184.808594 C 61.125 183.679688 60.207031 182.878906 59.183594 182.351562 Z M 59.183594 182.351562 " fill-opacity="1" fill-rule="nonzero"/></g></g></g></g><g clip-path="url(#2f6a371457)"><g clip-path="url(#0f1d00fc24)"><g clip-path="url(#2758303d0f)"><g clip-path="url(#381939d25d)"><path fill="#000000" d="M 48.800781 198.964844 C 46.574219 197.289062 45.039062 194.804688 44.628906 192.152344 C 43.949219 187.742188 46.414062 183.707031 51.0625 181.613281 C 54.085938 180.25 57.21875 180.191406 59.648438 181.449219 C 60.867188 182.082031 61.902344 183.023438 62.722656 184.25 C 65.703125 188.714844 65.34375 195.105469 61.902344 198.792969 C 61.355469 199.378906 60.820312 199.824219 60.261719 200.152344 C 59.65625 200.507812 58.953125 200.773438 58.101562 200.964844 C 55.230469 201.605469 52.140625 201.085938 49.628906 199.535156 C 49.34375 199.355469 49.066406 199.167969 48.796875 198.964844 Z M 58.71875 183.261719 C 56.847656 182.292969 54.363281 182.371094 51.90625 183.476562 C 48.074219 185.203125 46.105469 188.332031 46.648438 191.851562 C 47.019531 194.238281 48.53125 196.464844 50.699219 197.804688 C 52.757812 199.074219 55.292969 199.503906 57.648438 198.972656 C 58.289062 198.832031 58.804688 198.644531 59.222656 198.398438 C 59.609375 198.167969 59.996094 197.84375 60.40625 197.402344 C 63.183594 194.425781 63.460938 189.03125 61.027344 185.378906 C 60.402344 184.445312 59.628906 183.734375 58.71875 183.261719 Z M 59.1875 182.355469 Z M 59.1875 182.355469 " fill-opacity="1" fill-rule="nonzero"/></g></g></g></g><g clip-path="url(#ae95c5a3f8)"><g clip-path="url(#3b4df315d4)"><g clip-path="url(#bfde25cd0f)"><g clip-path="url(#5135ef0592)"><path fill="#ffffff" d="M 56.488281 183.203125 C 54 182.082031 49.539062 184.230469 49.617188 187.089844 C 49.675781 189.257812 51.429688 190.9375 53.511719 191.3125 C 57.828125 192.085938 60.789062 185.546875 56.6875 183.300781 C 56.621094 183.261719 56.554688 183.230469 56.488281 183.199219 Z M 56.488281 183.203125 " fill-opacity="1" fill-rule="nonzero"/></g></g></g></g><g clip-path="url(#27e3446dea)"><g clip-path="url(#72f6832e08)"><g clip-path="url(#343a0bb74e)"><g clip-path="url(#89f7ca42a9)"><path fill="#000000" d="M 50.984375 190.9375 C 49.761719 190.015625 48.976562 188.628906 48.9375 187.109375 C 48.898438 185.726562 49.71875 184.375 51.183594 183.402344 C 52.972656 182.214844 55.21875 181.886719 56.765625 182.582031 C 56.847656 182.617188 56.933594 182.660156 57.011719 182.703125 C 59.046875 183.820312 59.828125 186.042969 59.015625 188.367188 C 58.257812 190.527344 56.082031 192.464844 53.394531 191.984375 C 52.488281 191.820312 51.667969 191.453125 50.984375 190.9375 Z M 56.207031 183.820312 C 55.105469 183.324219 53.308594 183.625 51.941406 184.535156 C 50.871094 185.246094 50.269531 186.171875 50.296875 187.074219 C 50.34375 188.804688 51.746094 190.304688 53.628906 190.644531 C 55.570312 190.992188 57.160156 189.53125 57.730469 187.914062 C 58.195312 186.585938 58.078125 184.832031 56.363281 183.898438 C 56.3125 183.867188 56.261719 183.84375 56.210938 183.820312 Z M 56.207031 183.820312 " fill-opacity="1" fill-rule="nonzero"/></g></g></g></g><g clip-path="url(#1c0415d7bf)"><g clip-path="url(#247def8bca)"><g clip-path="url(#0ed91246fc)"><g clip-path="url(#dbb2aac39c)"><path fill="#ffffff" d="M 55.0625 195.722656 C 55.285156 195.921875 55.539062 196.085938 55.792969 196.199219 C 56.625 196.574219 57.695312 196.429688 58.4375 195.925781 C 59.144531 195.453125 59.292969 194.53125 58.921875 193.773438 C 58.621094 193.15625 57.996094 192.722656 57.324219 192.589844 C 56.28125 192.386719 54.527344 192.933594 54.371094 194.15625 C 54.296875 194.757812 54.617188 195.3125 55.0625 195.71875 Z M 55.0625 195.722656 " fill-opacity="1" fill-rule="nonzero"/></g></g></g></g><g clip-path="url(#400e065440)"><g clip-path="url(#feafae9698)"><g clip-path="url(#88c016a8d6)"><g clip-path="url(#c676e5848c)"><path fill="#000000" d="M 54.847656 196.421875 C 54.765625 196.359375 54.6875 196.292969 54.609375 196.226562 C 53.929688 195.617188 53.597656 194.832031 53.699219 194.074219 C 53.773438 193.476562 54.109375 192.949219 54.660156 192.550781 C 55.414062 192.003906 56.566406 191.75 57.457031 191.925781 C 58.371094 192.101562 59.148438 192.6875 59.539062 193.476562 C 60.082031 194.582031 59.78125 195.851562 58.828125 196.492188 C 57.859375 197.140625 56.53125 197.273438 55.519531 196.820312 C 55.289062 196.714844 55.058594 196.582031 54.851562 196.421875 Z M 57.886719 193.5625 C 57.6875 193.414062 57.453125 193.308594 57.199219 193.257812 C 56.742188 193.167969 55.964844 193.289062 55.460938 193.652344 C 55.21875 193.828125 55.078125 194.027344 55.050781 194.25 C 54.996094 194.6875 55.363281 195.074219 55.523438 195.214844 C 55.6875 195.367188 55.878906 195.488281 56.078125 195.578125 C 56.664062 195.84375 57.480469 195.753906 58.0625 195.363281 C 58.5 195.066406 58.523438 194.488281 58.316406 194.070312 C 58.21875 193.875 58.070312 193.699219 57.886719 193.5625 Z M 57.886719 193.5625 " fill-opacity="1" fill-rule="nonzero"/></g></g></g></g><g clip-path="url(#a5c2422558)"><g clip-path="url(#f0c11b0690)"><g clip-path="url(#a4ac66cf00)"><g clip-path="url(#33e3acd219)"><path fill="#000000" d="M 100.976562 213.917969 C 99.15625 211.851562 96.238281 210.863281 93.429688 211.605469 C 91.667969 212.070312 90.089844 213.085938 88.75 214.316406 C 86.082031 216.773438 84.25 220.652344 85.542969 224.054688 C 87.257812 228.582031 95.191406 231.671875 99.113281 228.328125 C 100.296875 227.320312 101.101562 225.933594 101.707031 224.5 C 102.722656 222.101562 103.234375 219.390625 102.5625 216.871094 C 102.257812 215.742188 101.707031 214.746094 100.976562 213.917969 Z M 100.976562 213.917969 " fill-opacity="1" fill-rule="nonzero"/></g></g></g></g><g clip-path="url(#d781e7eeef)"><g clip-path="url(#99cc7cc964)"><g clip-path="url(#7a37b80499)"><g clip-path="url(#42f6e3cef5)"><path fill="#000000" d="M 87.636719 228.257812 C 86.214844 227.1875 85.132812 225.851562 84.585938 224.414062 C 82.996094 220.222656 85.464844 215.949219 88.058594 213.566406 C 89.671875 212.082031 91.394531 211.089844 93.167969 210.621094 C 96.25 209.804688 99.617188 210.835938 101.742188 213.246094 C 102.605469 214.222656 103.214844 215.359375 103.546875 216.613281 C 104.207031 219.082031 103.898438 221.949219 102.648438 224.902344 C 101.867188 226.75 100.929688 228.125 99.777344 229.105469 C 97.910156 230.699219 95.117188 231.167969 92.105469 230.386719 C 90.441406 229.957031 88.90625 229.210938 87.640625 228.257812 Z M 99.253906 213.707031 C 97.683594 212.523438 95.617188 212.085938 93.695312 212.59375 C 92.242188 212.976562 90.8125 213.8125 89.445312 215.070312 C 87.148438 217.183594 85.347656 220.667969 86.496094 223.699219 C 87.285156 225.777344 89.742188 227.675781 92.609375 228.417969 C 94.964844 229.027344 97.089844 228.710938 98.445312 227.558594 C 99.351562 226.785156 100.109375 225.65625 100.765625 224.105469 C 101.511719 222.339844 102.257812 219.699219 101.574219 217.136719 C 101.324219 216.1875 100.863281 215.332031 100.210938 214.59375 C 99.921875 214.265625 99.601562 213.96875 99.253906 213.707031 Z M 99.253906 213.707031 " fill-opacity="1" fill-rule="nonzero"/></g></g></g></g><g clip-path="url(#7080a6342e)"><g clip-path="url(#714a1933dd)"><g clip-path="url(#8406d88b08)"><g clip-path="url(#e6533797f4)"><path fill="#ffffff" d="M 94.695312 212.277344 C 92.019531 211.773438 88.1875 214.90625 88.9375 217.667969 C 89.5 219.765625 91.597656 220.992188 93.710938 220.871094 C 98.085938 220.613281 99.429688 213.558594 94.917969 212.328125 C 94.84375 212.3125 94.769531 212.292969 94.699219 212.28125 Z M 94.695312 212.277344 " fill-opacity="1" fill-rule="nonzero"/></g></g></g></g><g clip-path="url(#a8685b6e9c)"><g clip-path="url(#0a7e73a4ba)"><g clip-path="url(#fcdf11e95c)"><g clip-path="url(#f66c180218)"><path fill="#000000" d="M 90.070312 220.457031 C 89.207031 219.808594 88.5625 218.90625 88.277344 217.847656 C 87.914062 216.511719 88.394531 215.003906 89.589844 213.714844 C 91.050781 212.140625 93.152344 211.296875 94.820312 211.609375 C 94.910156 211.628906 95 211.648438 95.089844 211.671875 C 97.324219 212.28125 98.609375 214.261719 98.363281 216.714844 C 98.132812 218.996094 96.476562 221.390625 93.75 221.546875 C 92.375 221.628906 91.074219 221.214844 90.070312 220.457031 Z M 95.835938 213.511719 C 95.535156 213.285156 95.171875 213.105469 94.738281 212.988281 C 94.683594 212.972656 94.628906 212.957031 94.570312 212.949219 C 93.382812 212.722656 91.710938 213.433594 90.59375 214.640625 C 89.71875 215.582031 89.355469 216.621094 89.589844 217.496094 C 90.042969 219.167969 91.753906 220.300781 93.664062 220.191406 C 95.628906 220.078125 96.832031 218.285156 97.003906 216.574219 C 97.113281 215.5 96.828125 214.261719 95.835938 213.511719 Z M 94.695312 212.28125 Z M 94.695312 212.28125 " fill-opacity="1" fill-rule="nonzero"/></g></g></g></g><g clip-path="url(#5f22b2a954)"><g clip-path="url(#06aaa1a49e)"><g clip-path="url(#fe58a2031b)"><g clip-path="url(#2a0da7e956)"><path fill="#ffffff" d="M 95.859375 225.160156 C 96.148438 225.089844 96.429688 224.972656 96.664062 224.828125 C 97.441406 224.359375 97.921875 223.394531 97.929688 222.496094 C 97.933594 221.644531 97.257812 220.996094 96.421875 220.875 C 95.742188 220.773438 95.035156 221.035156 94.546875 221.519531 C 93.792969 222.261719 93.257812 224.019531 94.183594 224.84375 C 94.632812 225.25 95.273438 225.300781 95.859375 225.160156 Z M 95.859375 225.160156 " fill-opacity="1" fill-rule="nonzero"/></g></g></g></g><g clip-path="url(#38b9d21775)"><g clip-path="url(#6a37d4ae3f)"><g clip-path="url(#95953d08ec)"><g clip-path="url(#125a6a7e51)"><path fill="#000000" d="M 93.863281 225.457031 C 93.816406 225.421875 93.769531 225.386719 93.730469 225.347656 C 93.277344 224.941406 93.03125 224.367188 93.015625 223.6875 C 92.992188 222.757812 93.425781 221.664062 94.070312 221.027344 C 94.730469 220.378906 95.644531 220.070312 96.519531 220.199219 C 97.738281 220.378906 98.617188 221.347656 98.613281 222.5 C 98.605469 223.664062 97.96875 224.835938 97.023438 225.40625 C 96.722656 225.59375 96.375 225.734375 96.023438 225.820312 C 95.203125 226.015625 94.429688 225.882812 93.863281 225.457031 Z M 96.878906 221.769531 C 96.71875 221.648438 96.519531 221.570312 96.324219 221.542969 C 95.878906 221.476562 95.378906 221.648438 95.027344 222 C 94.695312 222.328125 94.359375 223.035156 94.375 223.65625 C 94.386719 223.957031 94.472656 224.183594 94.636719 224.332031 C 94.96875 224.628906 95.492188 224.542969 95.703125 224.492188 C 95.917969 224.445312 96.128906 224.355469 96.3125 224.246094 C 96.859375 223.910156 97.246094 223.1875 97.25 222.484375 C 97.253906 222.179688 97.097656 221.9375 96.878906 221.773438 Z M 95.859375 225.15625 Z M 95.859375 225.15625 " fill-opacity="1" fill-rule="nonzero"/></g></g></g></g><g clip-path="url(#b9fc5203c3)"><g clip-path="url(#9bcfab5738)"><g clip-path="url(#c6dde0733a)"><g clip-path="url(#e65e12ac52)"><path fill="#000000" d="M 111.355469 217.132812 C 111.296875 217.085938 111.238281 217.035156 111.1875 216.976562 C 107.953125 213.167969 106.085938 208.125 106.058594 203.144531 C 106.058594 202.582031 106.511719 202.125 107.078125 202.125 C 107.640625 202.125 108.097656 202.578125 108.101562 203.140625 C 108.125 207.648438 109.820312 212.214844 112.746094 215.660156 C 113.109375 216.089844 113.058594 216.730469 112.628906 217.097656 C 112.257812 217.410156 111.726562 217.414062 111.355469 217.132812 Z M 111.355469 217.132812 " fill-opacity="1" fill-rule="nonzero"/></g></g></g></g><g clip-path="url(#9499f0c981)"><g clip-path="url(#e8b11482eb)"><g clip-path="url(#8c1c728c76)"><g clip-path="url(#f66cd0a760)"><path fill="#000000" d="M 55.324219 174.921875 C 54.992188 174.671875 54.835938 174.234375 54.960938 173.816406 C 55.121094 173.273438 55.6875 172.96875 56.230469 173.132812 C 60.910156 174.542969 65.75 175.074219 70.617188 174.710938 C 71.179688 174.671875 71.671875 175.09375 71.714844 175.652344 C 71.757812 176.214844 71.335938 176.703125 70.777344 176.746094 C 65.65625 177.125 60.566406 176.566406 55.644531 175.085938 C 55.527344 175.050781 55.417969 174.992188 55.324219 174.921875 Z M 55.324219 174.921875 " fill-opacity="1" fill-rule="nonzero"/></g></g></g></g><g clip-path="url(#6b4393cb44)"><g clip-path="url(#e571538299)"><g clip-path="url(#49856a4aa9)"><g clip-path="url(#ecefa2252e)"><path fill="#000000" d="M 62.222656 211.566406 C 61.910156 211.328125 61.746094 210.921875 61.84375 210.515625 C 61.972656 209.96875 62.519531 209.628906 63.070312 209.757812 C 67.429688 210.792969 71.351562 213.304688 74.109375 216.839844 C 74.457031 217.289062 74.375 217.925781 73.933594 218.273438 C 73.488281 218.617188 72.847656 218.535156 72.5 218.09375 C 70.027344 214.925781 66.515625 212.671875 62.605469 211.746094 C 62.464844 211.710938 62.335938 211.652344 62.226562 211.566406 Z M 62.222656 211.566406 " fill-opacity="1" fill-rule="nonzero"/></g></g></g></g><g clip-path="url(#7d3f07fc80)"><g clip-path="url(#c64a1ebe80)"><g clip-path="url(#f52536bffb)"><path fill="#000000" d="M 258.785156 219.898438 C 258.558594 219.511719 258.070312 219.382812 257.679688 219.609375 L 255.617188 220.8125 C 255.296875 220.355469 254.933594 219.933594 254.53125 219.550781 L 255.726562 218.144531 C 256.015625 217.804688 255.972656 217.296875 255.632812 217.007812 C 255.292969 216.71875 254.785156 216.761719 254.496094 217.101562 L 253.269531 218.550781 C 253.265625 218.550781 253.265625 218.550781 253.265625 218.554688 C 252.878906 218.304688 252.476562 218.09375 252.0625 217.914062 L 252.90625 215.835938 C 253.074219 215.421875 252.878906 214.953125 252.464844 214.785156 C 252.054688 214.617188 251.582031 214.8125 251.414062 215.226562 L 250.519531 217.417969 C 249.714844 217.253906 248.898438 217.226562 248.101562 217.347656 L 247.347656 215.585938 C 247.171875 215.175781 246.699219 214.996094 246.289062 215.160156 C 245.878906 215.339844 245.691406 215.8125 245.867188 216.222656 L 246.539062 217.792969 C 245.878906 218.085938 245.273438 218.496094 244.730469 218.992188 C 244.679688 218.933594 244.625 218.871094 244.554688 218.828125 L 242.351562 217.511719 C 241.96875 217.28125 241.472656 217.40625 241.242188 217.789062 C 241.015625 218.171875 241.140625 218.667969 241.523438 218.894531 L 243.679688 220.1875 C 243.375 220.609375 243.109375 221.0625 242.890625 221.542969 L 240.480469 220.808594 C 240.054688 220.675781 239.605469 220.917969 239.476562 221.34375 C 239.34375 221.769531 239.585938 222.222656 240.011719 222.351562 L 242.347656 223.0625 C 242.25 223.457031 242.1875 223.863281 242.148438 224.269531 C 242.144531 224.269531 242.144531 224.269531 242.144531 224.269531 L 239.65625 224.390625 C 239.210938 224.410156 238.867188 224.792969 238.890625 225.234375 C 238.910156 225.679688 239.289062 226.023438 239.734375 226.003906 L 242.148438 225.886719 C 242.175781 226.152344 242.210938 226.421875 242.269531 226.691406 C 242.363281 227.125 242.789062 227.40625 243.226562 227.3125 C 243.660156 227.222656 243.941406 226.792969 243.847656 226.355469 C 243.195312 223.265625 244.945312 219.9375 247.671875 219.089844 C 247.671875 219.085938 247.675781 219.085938 247.675781 219.085938 C 250.40625 218.238281 253.738281 219.992188 254.953125 222.910156 C 255.113281 223.300781 255.542969 223.496094 255.933594 223.371094 C 255.957031 223.363281 255.984375 223.355469 256.003906 223.347656 C 256.417969 223.175781 256.613281 222.703125 256.441406 222.292969 C 256.429688 222.269531 256.417969 222.242188 256.40625 222.21875 L 258.492188 221 C 258.878906 220.777344 259.007812 220.285156 258.785156 219.898438 Z M 210.632812 234.277344 C 210.867188 234.65625 210.75 235.152344 210.367188 235.386719 L 208.941406 236.261719 C 209.070312 236.492188 209.183594 236.730469 209.285156 236.972656 C 209.460938 237.382812 209.265625 237.855469 208.855469 238.027344 C 208.441406 238.207031 207.972656 238.007812 207.800781 237.59375 C 206.578125 234.679688 203.25 232.9375 200.519531 233.789062 C 200.519531 233.789062 200.519531 233.789062 200.515625 233.789062 C 197.789062 234.644531 196.042969 237.976562 196.703125 241.070312 C 196.792969 241.480469 196.550781 241.886719 196.15625 242.007812 C 196.132812 242.015625 196.109375 242.023438 196.082031 242.027344 C 195.648438 242.121094 195.21875 241.84375 195.128906 241.40625 C 195.082031 241.1875 195.046875 240.964844 195.019531 240.746094 C 194.96875 240.75 194.921875 240.765625 194.867188 240.761719 L 192.832031 240.640625 C 192.386719 240.617188 192.046875 240.234375 192.074219 239.789062 C 192.101562 239.34375 192.484375 239.003906 192.929688 239.03125 L 194.964844 239.152344 C 194.96875 239.152344 194.976562 239.15625 194.980469 239.15625 C 195.019531 238.625 195.117188 238.097656 195.253906 237.585938 L 193.054688 236.855469 C 192.632812 236.714844 192.402344 236.257812 192.542969 235.835938 C 192.6875 235.414062 193.140625 235.183594 193.5625 235.324219 L 195.824219 236.074219 C 196.078125 235.554688 196.378906 235.058594 196.726562 234.609375 C 196.640625 234.570312 196.554688 234.523438 196.484375 234.449219 L 194.949219 232.929688 C 194.632812 232.617188 194.628906 232.105469 194.945312 231.789062 C 195.257812 231.46875 195.769531 231.46875 196.085938 231.78125 L 197.621094 233.304688 C 197.6875 233.371094 197.730469 233.449219 197.769531 233.527344 C 198.226562 233.132812 198.730469 232.804688 199.273438 232.550781 L 198.550781 230.617188 C 198.394531 230.203125 198.605469 229.734375 199.023438 229.582031 C 199.441406 229.4375 199.90625 229.636719 200.0625 230.054688 L 200.804688 232.035156 C 200.808594 232.046875 200.804688 232.054688 200.808594 232.066406 C 201.507812 231.945312 202.222656 231.941406 202.933594 232.046875 L 203.496094 229.847656 C 203.605469 229.414062 204.046875 229.152344 204.476562 229.265625 C 204.910156 229.375 205.171875 229.816406 205.058594 230.25 L 204.496094 232.445312 C 205.074219 232.660156 205.636719 232.941406 206.164062 233.28125 L 207.457031 231.6875 C 207.738281 231.339844 208.246094 231.285156 208.59375 231.566406 C 208.9375 231.847656 208.992188 232.355469 208.710938 232.699219 L 207.425781 234.289062 C 207.636719 234.492188 207.835938 234.703125 208.027344 234.929688 L 209.523438 234.011719 C 209.90625 233.78125 210.402344 233.898438 210.632812 234.277344 " fill-opacity="1" fill-rule="nonzero"/></g></g></g><g clip-path="url(#b2777bb849)"><g clip-path="url(#5674c85327)"><g clip-path="url(#d504ac6dcd)"><path fill="#000000" d="M 237.597656 239.222656 C 237.433594 238.808594 236.957031 238.605469 236.546875 238.773438 C 236.132812 238.941406 235.933594 239.410156 236.101562 239.824219 C 237.117188 242.34375 236.636719 244.910156 234.789062 246.867188 C 232.589844 249.191406 229.085938 250.066406 226.0625 249.042969 C 225.035156 248.695312 224.09375 248.136719 223.414062 247.476562 C 222.730469 246.804688 221.992188 245.496094 222.003906 244.550781 C 222.007812 244.105469 221.648438 243.742188 221.203125 243.738281 C 220.757812 243.734375 220.394531 244.089844 220.390625 244.535156 C 220.375 245.992188 221.332031 247.699219 222.289062 248.628906 C 223.148438 249.46875 224.273438 250.140625 225.546875 250.570312 C 227.539062 251.246094 229.714844 251.230469 231.699219 250.613281 C 233.304688 250.109375 234.789062 249.21875 235.960938 247.976562 C 238.261719 245.542969 238.859375 242.351562 237.597656 239.222656 " fill-opacity="1" fill-rule="nonzero"/></g></g></g><g clip-path="url(#eac7cb645e)"><g clip-path="url(#637efa666b)"><g clip-path="url(#5c4963e9b4)"><path fill="#ed5de3" d="M 262.789062 222.824219 C 255.699219 225.035156 259.171875 236.039062 266.28125 233.824219 C 273.367188 231.613281 269.894531 220.609375 262.789062 222.824219 Z M 193.644531 256.46875 C 186.535156 258.683594 183.0625 247.679688 190.148438 245.472656 C 197.257812 243.253906 200.730469 254.261719 193.644531 256.46875 " fill-opacity="1" fill-rule="nonzero"/></g></g></g></svg>