<svg xmlns="http://www.w3.org/2000/svg" xmlns:xlink="http://www.w3.org/1999/xlink" width="821" zoomAndPan="magnify" viewBox="0 0 615.75 93.749996" height="125" preserveAspectRatio="xMidYMid meet" version="1.0"><defs><clipPath id="bdbee0e5d8"><path d="M 1.195312 12 L 79 12 L 79 92.636719 L 1.195312 92.636719 Z M 1.195312 12 " clip-rule="nonzero"/></clipPath><clipPath id="2adb22218d"><path d="M 26 22 L 79 22 L 79 92.636719 L 26 92.636719 Z M 26 22 " clip-rule="nonzero"/></clipPath><clipPath id="a65afad1fb"><path d="M 26 0.65625 L 175.480469 0.65625 L 175.480469 80 L 26 80 Z M 26 0.65625 " clip-rule="nonzero"/></clipPath><clipPath id="be0830c0d6"><path d="M 537 12 L 614.199219 12 L 614.199219 92.636719 L 537 92.636719 Z M 537 12 " clip-rule="nonzero"/></clipPath><clipPath id="d7710700bb"><path d="M 537 22 L 590 22 L 590 92.636719 L 537 92.636719 Z M 537 22 " clip-rule="nonzero"/></clipPath><clipPath id="759bc65879"><path d="M 439.9375 0.65625 L 590 0.65625 L 590 80 L 439.9375 80 Z M 439.9375 0.65625 " clip-rule="nonzero"/></clipPath><clipPath id="d1e54d19b3"><path d="M 166.894531 0.65625 L 451.019531 0.65625 L 451.019531 79.246094 L 166.894531 79.246094 Z M 166.894531 0.65625 " clip-rule="nonzero"/></clipPath></defs><g clip-path="url(#bdbee0e5d8)"><path fill="#d35050" d="M 78.113281 92.859375 L 1.324219 92.859375 L 21.035156 53.429688 L 1.324219 13.996094 L 78.113281 12.667969 L 78.113281 92.859375 " fill-opacity="1" fill-rule="nonzero"/></g><g clip-path="url(#2adb22218d)"><path fill="#a53e3e" d="M 78.113281 92.859375 L 26.082031 79.496094 L 26.082031 22.542969 L 78.113281 22.542969 L 78.113281 92.859375 " fill-opacity="1" fill-rule="nonzero"/></g><g clip-path="url(#a65afad1fb)"><path fill="#e95454" d="M 386.203125 79.496094 L 26.082031 79.496094 L 26.082031 0.632812 L 386.203125 0.632812 L 386.203125 79.496094 " fill-opacity="1" fill-rule="nonzero"/></g><g clip-path="url(#be0830c0d6)"><path fill="#d35050" d="M 537.28125 92.859375 L 614.070312 92.859375 L 594.359375 53.429688 L 614.070312 13.996094 L 537.28125 12.667969 L 537.28125 92.859375 " fill-opacity="1" fill-rule="nonzero"/></g><g clip-path="url(#d7710700bb)"><path fill="#a53e3e" d="M 537.28125 92.859375 L 589.3125 79.496094 L 589.3125 22.542969 L 537.28125 22.542969 L 537.28125 92.859375 " fill-opacity="1" fill-rule="nonzero"/></g><g clip-path="url(#759bc65879)"><path fill="#e95454" d="M 229.191406 79.496094 L 589.3125 79.496094 L 589.3125 0.632812 L 229.191406 0.632812 L 229.191406 79.496094 " fill-opacity="1" fill-rule="nonzero"/></g><g clip-path="url(#d1e54d19b3)"><path fill="#e95454" d="M 166.894531 0.65625 L 451.019531 0.65625 L 451.019531 79.246094 L 166.894531 79.246094 Z M 166.894531 0.65625 " fill-opacity="1" fill-rule="nonzero"/></g></svg>