<svg xmlns="http://www.w3.org/2000/svg" xmlns:xlink="http://www.w3.org/1999/xlink" width="844" zoomAndPan="magnify" viewBox="0 0 633 119.999999" height="160" preserveAspectRatio="xMidYMid meet" version="1.0"><defs><clipPath id="26a90c9eea"><path d="M 0.460938 15 L 101 15 L 101 119.59375 L 0.460938 119.59375 Z M 0.460938 15 " clip-rule="nonzero"/></clipPath><clipPath id="6a37a4dc11"><path d="M 32 28 L 101 28 L 101 119.59375 L 32 119.59375 Z M 32 28 " clip-rule="nonzero"/></clipPath><clipPath id="998423e067"><path d="M 32 0.375 L 226.210938 0.375 L 226.210938 103 L 32 103 Z M 32 0.375 " clip-rule="nonzero"/></clipPath><clipPath id="949e634627"><path d="M 532 15 L 632.109375 15 L 632.109375 119.59375 L 532 119.59375 Z M 532 15 " clip-rule="nonzero"/></clipPath><clipPath id="67faba1dce"><path d="M 532 28 L 600 28 L 600 119.59375 L 532 119.59375 Z M 532 28 " clip-rule="nonzero"/></clipPath><clipPath id="78a172ad70"><path d="M 406.359375 0.375 L 600 0.375 L 600 103 L 406.359375 103 Z M 406.359375 0.375 " clip-rule="nonzero"/></clipPath><clipPath id="66de85ec19"><path d="M 215.277344 0.375 L 458.277344 0.375 L 458.277344 102.261719 L 215.277344 102.261719 Z M 215.277344 0.375 " clip-rule="nonzero"/></clipPath></defs><g clip-path="url(#26a90c9eea)"><path fill="#d35050" d="M 100.195312 119.898438 L 0.652344 119.898438 L 26.203125 68.78125 L 0.652344 17.664062 L 100.195312 15.945312 L 100.195312 119.898438 " fill-opacity="1" fill-rule="nonzero"/></g><g clip-path="url(#6a37a4dc11)"><path fill="#a53e3e" d="M 100.195312 119.898438 L 32.746094 102.574219 L 32.746094 28.746094 L 100.195312 28.746094 L 100.195312 119.898438 " fill-opacity="1" fill-rule="nonzero"/></g><g clip-path="url(#998423e067)"><path fill="#e95454" d="M 499.578125 102.574219 L 32.746094 102.574219 L 32.746094 0.34375 L 499.578125 0.34375 L 499.578125 102.574219 " fill-opacity="1" fill-rule="nonzero"/></g><g clip-path="url(#949e634627)"><path fill="#d35050" d="M 532.550781 119.898438 L 632.09375 119.898438 L 606.542969 68.78125 L 632.09375 17.664062 L 532.550781 15.945312 L 532.550781 119.898438 " fill-opacity="1" fill-rule="nonzero"/></g><g clip-path="url(#67faba1dce)"><path fill="#a53e3e" d="M 532.550781 119.898438 L 600 102.574219 L 600 28.746094 L 532.550781 28.746094 L 532.550781 119.898438 " fill-opacity="1" fill-rule="nonzero"/></g><g clip-path="url(#78a172ad70)"><path fill="#e95454" d="M 133.171875 102.574219 L 600 102.574219 L 600 0.34375 L 133.171875 0.34375 L 133.171875 102.574219 " fill-opacity="1" fill-rule="nonzero"/></g><g clip-path="url(#66de85ec19)"><path fill="#e95454" d="M 215.277344 0.375 L 458.277344 0.375 L 458.277344 102.261719 L 215.277344 102.261719 Z M 215.277344 0.375 " fill-opacity="1" fill-rule="nonzero"/></g></svg>